<svg xmlns="http://www.w3.org/2000/svg" width="74" height="74" viewBox="0 0 74 74">
    <g fill="#2B50FF" fill-rule="evenodd">
        <rect width="74" height="74" fill-opacity=".15" rx="37"/>
        <path fill-rule="nonzero" d="M36.805 46.395a1.433 1.433 0 0 1-2.35 1.104L26.611 41h-4.177A1.434 1.434 0 0 1 21 39.566v-5.715c0-.793.642-1.435 1.435-1.435h4.177l7.843-6.5a1.434 1.434 0 1 1 2.35 1.105v19.374zm5.513-2.242a1.433 1.433 0 0 1-1.117-.416l-.192-.192a1.434 1.434 0 0 1-.139-1.87 8.279 8.279 0 0 0 1.642-4.966 8.25 8.25 0 0 0-1.862-5.256 1.433 1.433 0 0 1 .098-1.918l.192-.192c.286-.286.67-.443 1.086-.418.405.02.783.211 1.04.525a11.346 11.346 0 0 1 2.582 7.26c0 2.496-.79 4.873-2.283 6.872-.25.333-.632.542-1.047.571zm5.931 4.434a1.436 1.436 0 0 1-2.11.089l-.19-.189a1.435 1.435 0 0 1-.083-1.937 15.314 15.314 0 0 0 3.589-9.841c0-3.739-1.365-7.338-3.842-10.134a1.435 1.435 0 0 1 .058-1.964l.188-.188c.279-.281.642-.435 1.057-.422.395.011.769.186 1.031.48a18.394 18.394 0 0 1 4.644 12.228c0 4.342-1.542 8.56-4.342 11.878z"/>
    </g>
</svg>
