<svg xmlns="http://www.w3.org/2000/svg" width="75" height="74" viewBox="0 0 75 74">
    <g fill="none" fill-rule="evenodd">
        <rect width="74" height="74" x=".667" fill="#EC9259" fill-opacity=".15" rx="37"/>
        <path fill="#FF7C2B" fill-rule="nonzero" d="M39.032 46.397a3.914 3.914 0 0 1-2.457-.916l-4.538-3.997a1.998 1.998 0 0 0-2.581-.125l-6.454 4.746v3.081a1.499 1.499 0 0 0 1.54 1.582H47.4c.916 0 1.832-.666 1.832-1.582V41.11l-8.202 4.746a3.789 3.789 0 0 1-1.998.542z"/>
        <circle cx="38.699" cy="36.488" r="1.832" fill="#FF7C2B" fill-rule="nonzero"/>
        <path fill="#FF7C2B" fill-rule="nonzero" d="M53.562 27.286a1.54 1.54 0 0 0-1.124-.624l-22.69-2.623a1.915 1.915 0 0 0-1.25.333c-.323.28-.543.662-.624 1.082l-.375 3.248H47.4a3.58 3.58 0 0 1 3.498 3.456v14.697c0-.084.374-.167.541-.333.345-.271.545-.686.541-1.125l1.957-16.903a1.624 1.624 0 0 0-.375-1.208z"/>
        <path fill="#FF7C2B" fill-rule="nonzero" d="M47.4 30.367H24.543c-.916 0-1.54.875-1.54 1.79v11.866l5.495-3.996a3.664 3.664 0 0 1 4.622.208l4.58 3.997c.69.586 1.676.67 2.456.208l9.076-5.288v-6.994a1.915 1.915 0 0 0-1.832-1.79zM38.7 39.985a3.497 3.497 0 1 1 0-6.995 3.497 3.497 0 0 1 0 6.995z"/>
    </g>
</svg>
