<svg xmlns="http://www.w3.org/2000/svg" width="74" height="74" viewBox="0 0 74 74">
    <g fill="#96CA2B" fill-rule="evenodd">
        <rect width="74" height="74" fill-opacity=".15" rx="37"/>
        <path fill-rule="nonzero" d="M49.823 23.13a.525.525 0 0 0-.41-.126L33.293 25.1a.522.522 0 0 0-.454.519v18.955c-.903-1.04-2.311-1.712-3.899-1.712-2.728 0-4.94 1.977-4.94 4.414 0 2.437 2.212 4.414 4.94 4.414s4.94-1.977 4.94-4.414c0-.174-.014-.344-.036-.513a.514.514 0 0 0 .036-.18V31.426l15.08-1.962v9.884c-.904-1.04-2.312-1.712-3.9-1.712-2.728 0-4.94 1.977-4.94 4.414 0 2.437 2.212 4.414 4.94 4.414S50 44.486 50 42.049c0-.048-.006-.095-.008-.142.001-.014.008-.026.008-.04V23.522a.523.523 0 0 0-.177-.392z"/>
    </g>
</svg>
