<svg xmlns="http://www.w3.org/2000/svg" width="74" height="74" viewBox="0 0 74 74">
    <g fill="#FF4D9A" fill-rule="evenodd">
        <rect width="74" height="74" fill-opacity=".15" rx="37"/>
        <g fill-rule="nonzero">
            <path d="M37.003 43.992c1.833 0 3.402-.652 4.707-1.957 1.305-1.304 1.957-2.874 1.957-4.707V26.665c0-1.833-.652-3.402-1.957-4.707C40.405 20.653 38.836 20 37.003 20c-1.833 0-3.402.653-4.707 1.958-1.305 1.305-1.958 2.874-1.958 4.707v10.663c0 1.833.653 3.403 1.958 4.707 1.305 1.305 2.874 1.957 4.707 1.957z"/>
            <path d="M48.603 33.725a1.28 1.28 0 0 0-.937-.396c-.36 0-.673.132-.937.396a1.281 1.281 0 0 0-.395.937v2.666c0 2.57-.914 4.766-2.74 6.592-1.825 1.826-4.022 2.739-6.591 2.739s-4.766-.913-6.592-2.739c-1.826-1.825-2.739-4.023-2.739-6.592v-2.666c0-.36-.132-.673-.395-.937a1.28 1.28 0 0 0-.937-.396 1.28 1.28 0 0 0-.938.396 1.28 1.28 0 0 0-.396.937v2.666c0 3.069 1.025 5.738 3.072 8.008 2.048 2.27 4.579 3.572 7.592 3.905v2.75h-5.332a1.28 1.28 0 0 0-.937.395 1.28 1.28 0 0 0-.396.938c0 .36.132.673.396.937.264.263.576.396.937.396h13.33c.36 0 .673-.133.936-.396a1.28 1.28 0 0 0 .397-.937c0-.361-.132-.674-.397-.938a1.28 1.28 0 0 0-.937-.396h-5.33v-2.75c3.012-.332 5.542-1.634 7.59-3.904S49 40.396 49 37.328v-2.666c0-.36-.132-.673-.397-.937z"/>
        </g>
    </g>
</svg>
