<svg xmlns="http://www.w3.org/2000/svg" width="75" height="74" viewBox="0 0 75 74">
    <g fill="none" fill-rule="evenodd">
        <rect width="74" height="74" x=".667" fill="#C75CFB" fill-opacity=".15" rx="37"/>
        <path fill="#B92BFF" fill-rule="nonzero" d="M48.86 34.619c0-1.238.115-2.567 0-3.827-.115-1.26-.481-2.43-1.42-3.392l-3.118-3.048C43.43 23.435 42.214 23 40.954 23H28.67c-.779 0-1.58.527-1.58 1.306V46.33c.916-.733 3.803-2.429 4.124-2.635l.115-.069a95.772 95.772 0 0 0 2.085-3.942c1.1-2.2 1.948-4.377 2.567-6.44-.436-1.466-.71-2.887-.78-4.239v-.183c-.068-.963-.16-2.59.665-3.209.252-.183.55-.297.848-.297.16 0 .321.022.458.091.55.184.894.757.986 1.673.092.504.046 1.008 0 1.421-.092 1.031-.344 3.002-.756 4.72 0 .047.045.138.068.207.023.046.023.069.046.115 1.031 3.002 2.888 5.248 5.615 6.829a26.712 26.712 0 0 1 2.864-.184c.757 0 1.765.023 2.682.253.045.023.16.023.16.045.023-1.947.023-3.918.023-5.866z"/>
        <path fill="#B92BFF" fill-rule="nonzero" d="M34.583 41.975a19.933 19.933 0 0 1 5.225-1.513c.252-.023.344-.343.16-.527-1.26-1.145-2.177-2.52-2.796-3.758-.114-.23-.458-.206-.55.046-.458 1.352-1.077 2.773-1.879 4.308l-.55 1.032c-.137.252.138.527.39.412zM31.925 45.481a5.582 5.582 0 0 1-.16.253c-.39.618-.757 1.145-1.124 1.627-.412.55-.825 1.077-1.306 1.558-.183.184-.39.367-.596.527-.252.206-.573.32-.756.573-.138.16-.183.39-.183.596a.832.832 0 0 0 .825.802h17.897c1.215 0 2.315-.985 2.315-2.2v-5.684s-.206.023-.298.023c-1.352 0-3.346-.55-5.225-1.443a.704.704 0 0 0-.298-.07c-.39-.045-.802-.045-1.191-.045-.573 0-1.146.046-1.72.115-.434.068-.87.137-1.305.229a17.147 17.147 0 0 0-6.623 2.887.874.874 0 0 0-.252.252z"/>
    </g>
</svg>
