<svg xmlns="http://www.w3.org/2000/svg" width="74" height="74" viewBox="0 0 74 74">
    <g fill="none" fill-rule="evenodd">
        <rect width="74" height="74" fill="#2BE4FF" fill-opacity=".15" rx="37"/>
        <path fill="#43CBDF" fill-rule="nonzero" d="M32.866 52.795c.157-.016.228-1.61 1.68-1.592-.014.013.583-2.133.676-3.002.095-.872-.544-2.33-.555-2.396.1-.154-.797-1.055 2.141-5.455 3.25-4.616 3.649-5.221 3.714-5.944-1.094 1.487-3.261 2.92-3.25 2.918.008-.002 2.06-2.322 4.529-5.154 2.373-2.778 5.163-6.07 4.455-6.762-1.026 1.913-3.305 3.218-3.299 3.22 3.564-3.862 4.897-7.01 4.944-8.93.111-1.961-1.063-2.696-1.044-2.696.08-.074-4.821 2.571-9.183 6.018-4.444 3.446-8.348 7.693-8.16 10.8-.488-.238-1.743-.03-1.745-.026.04-.043-1.288 1.457-2.08 3.65-.823 2.215-1.11 5.125.286 8.445-.013.017.394 1.013 1.326 2.302.91 1.315 2.344 2.925 3.867 4.745.004-.005.412.658.543.755.142.087.486.877.482.881-.002.002.02.34.302.688.192.591.364 1.202.514 1.832.003-.003.436.464.506.377.076-.092-.16-1.184-.402-2.028-.014-.4-.276-1.328-.28-1.323 0-.001-.105-1.302.033-1.323zm-.936-1.145c-.964-2.402-1.602-4.738-1.509-7.296.069-2.539.868-5.3 2.22-8.103 1.326-2.784 3.206-5.61 4.878-7.826 1.647-2.198 3.087-3.787 2.977-3.648-1.605 2.849-5.525 7.605-7.543 12.136-2.199 4.676-2.496 9.127-1.023 14.737z"/>
    </g>
</svg>
