<svg xmlns="http://www.w3.org/2000/svg" width="253" height="49" viewBox="0 0 253 49">
    <path fill="#FFF" fill-rule="evenodd" d="M50.87 1.36a.684.684 0 0 1-.247.456.731.731 0 0 1-.476.172 5.93 5.93 0 0 0-.571-.019c-.242 0-.55.025-.924.076-.374.05-.787.155-1.238.314-.45.159-.92.39-1.409.695a6.96 6.96 0 0 0-1.438 1.228c-.47.515-.914 1.15-1.333 1.905-.419.755-.774 1.666-1.066 2.732-.152.534-.327 1.299-.524 2.295a198.959 198.959 0 0 0-1.295 7.341c-.222 1.41-.431 2.793-.628 4.152-.197 1.358-.378 2.65-.543 3.875a98.875 98.875 0 0 0-.38 3.151.85.85 0 0 1-.22.448.58.58 0 0 1-.447.2.821.821 0 0 1-.467-.133.686.686 0 0 1-.276-.4 52.611 52.611 0 0 0-.78-2.533 324.923 324.923 0 0 0-2.743-7.96c-.546-1.523-1.088-3.031-1.628-4.523-.54-1.491-1.06-2.92-1.561-4.284a2783.65 2783.65 0 0 1-1.324-3.609 38.2 38.2 0 0 1-.295 2.37c-.133.87-.311 1.804-.533 2.8a47.163 47.163 0 0 1-2.01 6.618c-.71 1.828-1.545 3.39-2.504 4.684-.958 1.295-1.964 2.374-3.018 3.237-1.054.864-2.123 1.546-3.209 2.048-1.085.501-2.104.879-3.056 1.133s-1.809.415-2.57.485c-.762.07-1.346.105-1.753.105-1.396 0-2.682-.184-3.856-.552-1.174-.368-2.19-.892-3.047-1.571a7.234 7.234 0 0 1-2-2.438c-.475-.946-.713-1.99-.713-3.132 0-1.029.231-1.99.695-2.885a7.614 7.614 0 0 1 1.866-2.333 9.09 9.09 0 0 1 2.685-1.562 8.853 8.853 0 0 1 3.152-.571c.9 0 1.71.089 2.428.267a9.398 9.398 0 0 1 1.904.676 7.979 7.979 0 0 1 1.428.885c.4.318.73.619.99.905.26.285.457.53.59.733l.239.362a.738.738 0 0 1-.124.838.663.663 0 0 1-.524.228c-.28 0-.489-.127-.628-.38-.013-.039-.137-.22-.372-.544-.234-.323-.596-.676-1.085-1.056-.489-.381-1.12-.727-1.895-1.038-.774-.311-1.714-.467-2.818-.467-.902 0-1.78.153-2.638.457a7.685 7.685 0 0 0-2.275 1.257 6.32 6.32 0 0 0-1.59 1.895c-.4.73-.6 1.52-.6 2.37a5.1 5.1 0 0 0 .647 2.543 6.2 6.2 0 0 0 1.762 1.97c.742.547 1.606.969 2.59 1.267.983.299 2.034.448 3.151.448.432 0 1.003-.032 1.714-.095a14.94 14.94 0 0 0 2.39-.438 15.805 15.805 0 0 0 2.79-1.038c.977-.464 1.942-1.095 2.894-1.895.952-.8 1.863-1.796 2.733-2.99.87-1.193 1.634-2.64 2.295-4.342a39.703 39.703 0 0 0 1.609-4.998c.387-1.581.676-3.006.866-4.276.19-1.27.308-2.351.353-3.246.044-.895.066-1.533.066-1.914v-.381a.75.75 0 0 1 .2-.524.676.676 0 0 1 .524-.219c.317 0 .54.159.666.476.038.09.15.388.334.895.184.508.425 1.165.723 1.971a1312.117 1312.117 0 0 1 2.257 6.151 1219.698 1219.698 0 0 1 2.675 7.436c.438 1.232.854 2.419 1.248 3.561a561.74 561.74 0 0 1 1.066 3.124c.14-1.016.292-2.092.457-3.228.165-1.136.34-2.285.524-3.447s.368-2.301.552-3.418c.184-1.117.368-2.165.552-3.142.184-.978.353-1.854.505-2.628.152-.775.292-1.397.419-1.866.28-1.118.679-2.162 1.2-3.133a10.336 10.336 0 0 1 1.894-2.542 8.363 8.363 0 0 1 2.552-1.705c.959-.412 2.022-.619 3.19-.619.444 0 .765.051.961.153.197.101.296.298.296.59v.095zM48.034 15.05c0 .483-.168.892-.504 1.229a1.672 1.672 0 0 1-1.229.504c-.482 0-.892-.168-1.228-.504a1.672 1.672 0 0 1-.505-1.229 1.713 1.713 0 0 1 .505-1.228 1.727 1.727 0 0 1 1.228-.505 1.713 1.713 0 0 1 1.229.505 1.727 1.727 0 0 1 .504 1.228zm-3.085 11.16c0-1.829.114-3.65.343-5.466a.808.808 0 0 1 .238-.466.708.708 0 0 1 .524-.2c.19 0 .349.073.476.219.127.146.19.314.19.504 0 .076-.016.305-.047.686l-.115 1.361a55.332 55.332 0 0 0-.114 1.676c-.032.59-.047 1.133-.047 1.628 0 .673.066 1.216.2 1.628.133.413.304.734.514.962.21.229.431.381.666.457.235.076.46.114.676.114.356 0 .724-.126 1.105-.38.38-.254.77-.61 1.17-1.067.4-.457.804-1.006 1.21-1.647.406-.641.806-1.355 1.2-2.142a.708.708 0 0 1 .647-.4c.203 0 .372.076.505.228.133.153.2.318.2.495a.643.643 0 0 1-.076.324c-.153.292-.343.648-.572 1.067A18.47 18.47 0 0 1 52.1 28.41c-.35.438-.72.831-1.114 1.18-.394.35-.806.632-1.238.848a2.91 2.91 0 0 1-1.314.324c-.571 0-1.073-.12-1.504-.362a3.41 3.41 0 0 1-1.095-.971 4.227 4.227 0 0 1-.667-1.438 6.946 6.946 0 0 1-.219-1.78zm2.019-11.16a.64.64 0 0 0-.2-.466.64.64 0 0 0-.467-.2.609.609 0 0 0-.457.2.655.655 0 0 0-.19.466c0 .178.063.33.19.457s.28.19.457.19a.655.655 0 0 0 .467-.19c.133-.127.2-.279.2-.457zm8.15 7.122a9.55 9.55 0 0 1-.19.962 15.088 15.088 0 0 1-.4 1.323 1.26 1.26 0 0 1-.095.229.674.674 0 0 1-.667.438.738.738 0 0 1-.495-.2.642.642 0 0 1-.228-.505c0-.076.012-.133.038-.171.025-.038.063-.114.114-.228.05-.115.114-.305.19-.572.076-.266.172-.679.286-1.238-.216 0-.438-.006-.667-.019a2.075 2.075 0 0 1-.638-.133 1.103 1.103 0 0 1-.485-.362c-.127-.165-.19-.393-.19-.685 0-.216.06-.508.18-.876.121-.368.283-.73.486-1.086.203-.355.432-.663.686-.923.253-.26.507-.39.761-.39.292 0 .53.107.714.323.184.216.327.48.429.79.101.311.174.638.219.981.044.343.066.641.066.895.216 0 .429-.003.638-.01.21-.006.41-.009.6-.009.724 0 1.276.159 1.657.476.38.317.571.838.571 1.562 0 .292-.019.596-.057.914-.038.317-.082.644-.133.98-.05.337-.095.67-.133 1a8.47 8.47 0 0 0-.058.971c0 .457.064.835.19 1.133.128.299.286.537.477.715.19.177.393.301.61.37.215.07.412.106.59.106.546 0 1.06-.178 1.542-.534a7.263 7.263 0 0 0 1.333-1.285c.406-.501.771-1.032 1.095-1.59.324-.559.594-1.047.81-1.466a.673.673 0 0 1 .266-.267.734.734 0 0 1 .362-.095c.228 0 .406.073.533.219.127.146.19.308.19.485a.756.756 0 0 1-.076.343c-.292.52-.631 1.108-1.019 1.762a12.615 12.615 0 0 1-1.323 1.837 7.652 7.652 0 0 1-1.666 1.448 3.69 3.69 0 0 1-2.028.59c-.457 0-.889-.086-1.295-.257a3.014 3.014 0 0 1-1.057-.743 3.608 3.608 0 0 1-.714-1.2 4.575 4.575 0 0 1-.267-1.609c0-.635.064-1.266.19-1.895.128-.628.191-1.228.191-1.8 0-.24-.054-.421-.162-.542-.108-.12-.346-.18-.714-.18h-.58c-.21 0-.436.006-.677.018zm-1.276-1.409c0-.089-.003-.206-.01-.352a4.672 4.672 0 0 0-.037-.429 2.241 2.241 0 0 0-.076-.361c-.032-.102-.067-.153-.105-.153-.038 0-.086.048-.143.143a4.098 4.098 0 0 0-.352.771 5.36 5.36 0 0 0-.115.381h.838zm25.823 3.923l-.315.638a17.216 17.216 0 0 1-1.476 2.428 8.7 8.7 0 0 1-1.104 1.257c-.406.38-.844.695-1.314.942-.47.248-.965.372-1.485.372-.737 0-1.355-.235-1.857-.705-.501-.47-.866-1.06-1.095-1.77-.432.723-.946 1.297-1.542 1.723-.597.425-1.194.637-1.79.637-.47 0-.895-.085-1.276-.257a2.746 2.746 0 0 1-.972-.723 3.364 3.364 0 0 1-.618-1.095 4.14 4.14 0 0 1-.22-1.371c0-.99.169-1.863.505-2.619.337-.755.765-1.387 1.286-1.894a5.303 5.303 0 0 1 1.723-1.143c.628-.254 1.235-.38 1.819-.38.393 0 .755.053 1.085.16.33.109.613.226.847.353a3.226 3.226 0 0 1 .753.533c.14.165.21.337.21.515 0 .19-.07.358-.21.504a.663.663 0 0 1-.495.22.699.699 0 0 1-.515-.21 2.156 2.156 0 0 0-.533-.362 2.96 2.96 0 0 0-.543-.2 2.719 2.719 0 0 0-.714-.086c-.393 0-.812.09-1.256.267-.445.178-.851.454-1.22.828-.367.375-.675.845-.923 1.41-.247.564-.371 1.234-.371 2.008 0 .242.025.486.076.734.05.247.14.473.267.676.127.203.298.368.514.495.216.127.482.19.8.19.228 0 .492-.076.79-.228.298-.153.584-.388.857-.705.273-.317.52-.717.742-1.2.223-.482.378-1.053.467-1.713a.707.707 0 0 1 .248-.448c.14-.12.304-.18.495-.18.177 0 .333.069.466.209.134.14.207.298.22.476.012.24.037.58.075 1.018.039.438.124.873.258 1.305.133.432.333.806.6 1.123.266.318.634.477 1.104.477.305 0 .606-.083.904-.248.299-.165.59-.384.876-.657.286-.273.559-.584.82-.933a14.38 14.38 0 0 0 1.285-2.085c.165-.33.304-.616.419-.857a.728.728 0 0 1 .666-.438c.216 0 .39.08.524.238.133.158.2.327.2.504a.672.672 0 0 1-.057.267zm2.913 3.6a41.987 41.987 0 0 1 1.562-2.905 36.08 36.08 0 0 1 .961-1.533c.337-.508.69-.99 1.057-1.447.368-.444.74-.765 1.114-.962.375-.197.727-.295 1.057-.295.66 0 1.149.241 1.466.724.318.482.477 1.079.477 1.79a7.6 7.6 0 0 1-.03.6l-.056.752c-.02.266-.038.536-.057.81-.02.272-.029.53-.029.77 0 .305.016.597.048.876.031.28.092.524.18.733.09.21.216.375.381.496.166.12.381.18.648.18.482 0 .952-.187 1.41-.561a7.7 7.7 0 0 0 1.265-1.333c.388-.514.724-1.038 1.01-1.571.285-.534.498-.965.638-1.295a.728.728 0 0 1 .666-.438c.216 0 .39.08.524.238.133.158.2.327.2.504a.672.672 0 0 1-.057.267c-.051.102-.153.311-.305.628-.152.318-.352.683-.6 1.095-.247.413-.536.851-.866 1.314-.33.464-.695.886-1.095 1.267-.4.38-.832.698-1.295.952a2.99 2.99 0 0 1-1.457.38c-.571 0-1.035-.11-1.39-.333a2.41 2.41 0 0 1-.838-.875 3.58 3.58 0 0 1-.41-1.2 8.394 8.394 0 0 1-.104-1.324c0-.19.01-.406.028-.647.02-.241.045-.495.077-.762.031-.266.057-.533.076-.8.019-.266.028-.52.028-.761 0-.407-.063-.683-.19-.829-.127-.146-.241-.219-.343-.219-.203 0-.435.118-.695.353a6.5 6.5 0 0 0-.819.923c-.285.381-.577.81-.876 1.286-.298.476-.577.948-.838 1.418-.26.47-.501.917-.723 1.343-.222.425-.397.777-.524 1.057-.254.533-.508.891-.762 1.076-.254.184-.514.276-.78.276-.369 0-.664-.111-.886-.334-.222-.222-.333-.536-.333-.942 0-.09.012-.264.038-.524.025-.26.057-.571.095-.933.038-.362.076-.752.114-1.171l.115-1.247c.038-.413.07-.797.095-1.153a10.558 10.558 0 0 0 0-1.81c-.026-.29-.076-.468-.153-.532-.114.038-.317.276-.609.714-.292.438-.666 1.21-1.123 2.314a.71.71 0 0 1-.286.324.766.766 0 0 1-.4.114.647.647 0 0 1-.514-.219.746.746 0 0 1-.133-.79c.57-1.359 1.107-2.358 1.609-3 .501-.64 1-.961 1.495-.961.292 0 .54.073.742.219.203.146.365.34.486.58.12.242.21.508.266.8.058.292.086.59.086.895 0 .229-.016.584-.047 1.067-.032.482-.073 1-.124 1.552-.051.552-.099 1.101-.143 1.647a64.796 64.796 0 0 1-.124 1.371zM98.973 15.05c0 .483-.168.892-.504 1.229a1.672 1.672 0 0 1-1.229.504c-.482 0-.892-.168-1.228-.504a1.672 1.672 0 0 1-.505-1.229 1.713 1.713 0 0 1 .505-1.228 1.727 1.727 0 0 1 1.228-.505 1.713 1.713 0 0 1 1.229.505 1.727 1.727 0 0 1 .504 1.228zm-1.828 15.616a80.76 80.76 0 0 0 1.447-1.61c.495-.565.971-1.13 1.429-1.694a27.43 27.43 0 0 0 1.256-1.676 9.46 9.46 0 0 0 .895-1.571c.115-.28.33-.42.648-.42.216 0 .39.074.524.22a.704.704 0 0 1 .142.771c-.292.66-.692 1.346-1.2 2.057a34.849 34.849 0 0 1-1.647 2.123c-.59.705-1.193 1.39-1.809 2.057-.615.666-1.177 1.285-1.685 1.856.013 1.016.029 2.012.048 2.99.019.978.028 1.904.028 2.78 0 3.492-.343 6.081-1.028 7.77-.686 1.688-1.708 2.533-3.066 2.533-.47 0-.901-.102-1.295-.305a2.885 2.885 0 0 1-1.01-.876c-.279-.381-.498-.85-.656-1.41-.159-.558-.238-1.193-.238-1.904 0-.787.104-1.647.314-2.58.21-.933.546-1.92 1.01-2.961a22.276 22.276 0 0 1 1.799-3.228 28.137 28.137 0 0 1 2.666-3.38c0-1.092.006-2.18.019-3.266.013-1.085.035-2.126.066-3.123.032-.997.077-1.93.134-2.8.057-.869.124-1.64.2-2.313a.7.7 0 0 1 .723-.628c.19 0 .356.07.495.21.14.139.21.31.21.513 0 .076-.022.324-.067.743a46.451 46.451 0 0 0-.143 1.847 117.073 117.073 0 0 0-.21 7.274zm.743-15.616a.655.655 0 0 0-.19-.466.609.609 0 0 0-.458-.2.64.64 0 0 0-.466.2.64.64 0 0 0-.2.466c0 .178.066.33.2.457.133.127.288.19.466.19.178 0 .33-.063.457-.19a.623.623 0 0 0 .19-.457zm-2.095 23.385c0-.647-.006-1.295-.02-1.942l-.037-2.114a22.63 22.63 0 0 0-2.01 2.818 21.24 21.24 0 0 0-1.36 2.666 13.39 13.39 0 0 0-.772 2.419 10.26 10.26 0 0 0-.238 2.075c0 .356.025.715.076 1.076.05.362.143.692.276.99.134.299.314.54.543.724.228.184.52.276.876.276.14 0 .305-.031.495-.095.19-.063.384-.2.58-.41.198-.209.391-.51.582-.904.19-.393.362-.923.514-1.59.152-.666.273-1.488.362-2.466.089-.978.133-2.152.133-3.523zm21.1-13.749l-.315.638a17.216 17.216 0 0 1-1.476 2.428 8.7 8.7 0 0 1-1.104 1.257c-.406.38-.844.695-1.314.942-.47.248-.965.372-1.485.372-.737 0-1.355-.235-1.857-.705-.501-.47-.866-1.06-1.095-1.77-.432.723-.946 1.297-1.542 1.723-.597.425-1.194.637-1.79.637-.47 0-.895-.085-1.276-.257a2.746 2.746 0 0 1-.972-.723 3.364 3.364 0 0 1-.618-1.095 4.14 4.14 0 0 1-.22-1.371c0-.99.169-1.863.505-2.619.337-.755.765-1.387 1.286-1.894a5.303 5.303 0 0 1 1.723-1.143c.628-.254 1.235-.38 1.819-.38.393 0 .755.053 1.085.16.33.109.613.226.847.353a3.226 3.226 0 0 1 .753.533c.14.165.21.337.21.515 0 .19-.07.358-.21.504a.663.663 0 0 1-.495.22.699.699 0 0 1-.515-.21 2.156 2.156 0 0 0-.533-.362 2.96 2.96 0 0 0-.543-.2 2.719 2.719 0 0 0-.714-.086c-.393 0-.812.09-1.256.267-.445.178-.851.454-1.22.828-.367.375-.675.845-.923 1.41-.247.564-.371 1.234-.371 2.008 0 .242.025.486.076.734.05.247.14.473.267.676.127.203.298.368.514.495.216.127.482.19.8.19.228 0 .492-.076.79-.228.298-.153.584-.388.857-.705.273-.317.52-.717.742-1.2.223-.482.378-1.053.467-1.713a.707.707 0 0 1 .248-.448c.14-.12.304-.18.495-.18.177 0 .333.069.466.209.134.14.207.298.22.476.012.24.037.58.075 1.018.039.438.124.873.258 1.305.133.432.333.806.6 1.123.266.318.634.477 1.104.477.305 0 .606-.083.904-.248.299-.165.59-.384.876-.657.286-.273.559-.584.82-.933a14.381 14.381 0 0 0 1.285-2.085c.165-.33.304-.616.419-.857a.728.728 0 0 1 .666-.438c.216 0 .39.08.524.238.133.158.2.327.2.504a.672.672 0 0 1-.057.267zm2.913 3.6a41.987 41.987 0 0 1 1.562-2.905c.304-.514.625-1.025.961-1.533.337-.508.69-.99 1.057-1.447.368-.444.74-.765 1.114-.962.375-.197.727-.295 1.057-.295.66 0 1.15.241 1.466.724.318.482.477 1.079.477 1.79a7.6 7.6 0 0 1-.03.6 78.84 78.84 0 0 0-.056.752c-.02.266-.038.536-.057.81-.02.272-.029.53-.029.77 0 .305.016.597.048.876.031.28.092.524.18.733.09.21.216.375.382.496.165.12.38.18.647.18.482 0 .952-.187 1.41-.561a7.7 7.7 0 0 0 1.265-1.333c.388-.514.724-1.038 1.01-1.571.285-.534.498-.965.638-1.295a.728.728 0 0 1 .666-.438c.216 0 .39.08.524.238.133.158.2.327.2.504a.672.672 0 0 1-.057.267c-.051.102-.153.311-.305.628-.152.318-.352.683-.6 1.095-.247.413-.536.851-.866 1.314-.33.464-.695.886-1.095 1.267-.4.38-.832.698-1.295.952a2.99 2.99 0 0 1-1.457.38c-.571 0-1.035-.11-1.39-.333a2.41 2.41 0 0 1-.838-.875 3.58 3.58 0 0 1-.41-1.2 8.393 8.393 0 0 1-.104-1.324c0-.19.01-.406.028-.647.02-.241.045-.495.077-.762.031-.266.057-.533.076-.8.019-.266.028-.52.028-.761 0-.407-.063-.683-.19-.829-.127-.146-.241-.219-.343-.219-.203 0-.435.118-.695.353a6.5 6.5 0 0 0-.819.923c-.285.381-.577.81-.876 1.286-.298.476-.577.948-.838 1.418-.26.47-.501.917-.723 1.343-.222.425-.397.777-.524 1.057-.254.533-.508.891-.762 1.076-.254.184-.514.276-.78.276-.369 0-.664-.111-.886-.334-.222-.222-.333-.536-.333-.942 0-.09.012-.264.038-.524.025-.26.057-.571.095-.933.038-.362.076-.752.114-1.171l.115-1.247c.038-.413.07-.797.095-1.153a10.558 10.558 0 0 0 0-1.81c-.026-.29-.076-.468-.153-.532-.114.038-.317.276-.609.714-.292.438-.666 1.21-1.123 2.314a.71.71 0 0 1-.286.324.766.766 0 0 1-.4.114.647.647 0 0 1-.514-.219.746.746 0 0 1-.133-.79c.57-1.359 1.107-2.358 1.609-3 .501-.64 1-.961 1.495-.961.292 0 .54.073.742.219.203.146.365.34.486.58.12.242.21.508.266.8.058.292.086.59.086.895 0 .229-.016.584-.047 1.067-.032.482-.073 1-.124 1.552-.051.552-.099 1.101-.143 1.647a64.798 64.798 0 0 1-.124 1.371zm27.841-3.6c-.05.102-.156.314-.314.638a17.216 17.216 0 0 1-1.476 2.428 8.7 8.7 0 0 1-1.105 1.257c-.406.38-.844.695-1.314.942-.47.248-.964.372-1.485.372-.736 0-1.355-.235-1.857-.705-.501-.47-.866-1.06-1.095-1.77-.431.723-.945 1.297-1.542 1.723-.597.425-1.193.637-1.79.637-.47 0-.895-.085-1.276-.257a2.746 2.746 0 0 1-.971-.723 3.364 3.364 0 0 1-.619-1.095 4.14 4.14 0 0 1-.219-1.371c0-.99.168-1.863.505-2.619.336-.755.765-1.387 1.285-1.894a5.303 5.303 0 0 1 1.723-1.143c.629-.254 1.235-.38 1.819-.38.394 0 .755.053 1.085.16.33.109.613.226.848.353a3.226 3.226 0 0 1 .752.533c.14.165.21.337.21.515 0 .19-.07.358-.21.504a.663.663 0 0 1-.495.22.699.699 0 0 1-.514-.21 2.156 2.156 0 0 0-.533-.362 2.96 2.96 0 0 0-.543-.2 2.719 2.719 0 0 0-.714-.086c-.394 0-.813.09-1.257.267-.444.178-.85.454-1.219.828-.368.375-.676.845-.923 1.41-.248.564-.372 1.234-.372 2.008 0 .242.026.486.076.734.051.247.14.473.267.676.127.203.298.368.514.495.216.127.483.19.8.19.229 0 .492-.076.79-.228.299-.153.584-.388.857-.705.273-.317.52-.717.743-1.2.222-.482.378-1.053.466-1.713a.707.707 0 0 1 .248-.448c.14-.12.305-.18.495-.18.178 0 .333.069.467.209.133.14.206.298.219.476.012.24.038.58.076 1.018.038.438.124.873.257 1.305.133.432.333.806.6 1.123.266.318.635.477 1.104.477.305 0 .606-.083.905-.248.298-.165.59-.384.876-.657.285-.273.558-.584.819-.933a14.38 14.38 0 0 0 1.285-2.085c.165-.33.305-.616.419-.857a.728.728 0 0 1 .666-.438c.216 0 .39.08.524.238.133.158.2.327.2.504a.672.672 0 0 1-.057.267zm41.076-14.682a.706.706 0 0 1-.248.419.655.655 0 0 1-.419.152.729.729 0 0 1-.552-.219.709.709 0 0 1-.21-.504c0-.19.02-.378.058-.562.038-.184.057-.365.057-.543 0-.927-.286-1.758-.857-2.495-.572-.736-1.38-1.355-2.428-1.856-1.048-.502-2.32-.886-3.818-1.152-1.498-.267-3.168-.4-5.009-.4-1.409 0-2.828.092-4.256.276-1.428.184-2.799.45-4.113.8a22.71 22.71 0 0 0-3.685 1.314c-1.142.526-2.136 1.136-2.98 1.828-.844.692-1.508 1.46-1.99 2.304a5.488 5.488 0 0 0-.724 2.77c0 .775.169 1.457.505 2.048.336.59.797 1.104 1.38 1.542a8.74 8.74 0 0 0 2.067 1.124 17.85 17.85 0 0 0 2.58.78c.927.21 1.892.381 2.895.515 1.003.133 2.012.244 3.027.333l2.933.248c1.46.127 2.768.26 3.923.4 1.155.14 2.17.317 3.047.533 1.46.368 2.539.895 3.237 1.58.698.686 1.047 1.6 1.047 2.742 0 1.105-.304 2.076-.914 2.914-.609.838-1.44 1.542-2.494 2.114-1.054.571-2.285 1.003-3.695 1.295-1.409.292-2.92.438-4.532.438-1.752 0-3.291-.118-4.618-.353-1.326-.234-2.437-.495-3.332-.78-.895-.286-1.578-.55-2.047-.79-.47-.242-.724-.375-.762-.4-.229-.128-.343-.33-.343-.61 0-.216.076-.39.229-.524a.738.738 0 0 1 .495-.2c.14 0 .266.039.38.115.013 0 .232.11.658.333.425.222 1.06.466 1.904.733.844.267 1.888.508 3.132.724 1.245.216 2.692.323 4.342.323 1.638 0 3.085-.133 4.342-.4 1.257-.266 2.314-.637 3.17-1.113.858-.477 1.505-1.035 1.943-1.676a3.623 3.623 0 0 0 .657-2.085c0-.445-.08-.829-.238-1.153a2.552 2.552 0 0 0-.657-.837 3.943 3.943 0 0 0-1-.6 8.461 8.461 0 0 0-1.266-.42c-.482-.126-1-.234-1.552-.323a33.546 33.546 0 0 0-1.704-.228 78.797 78.797 0 0 0-1.762-.172c-.59-.05-1.171-.101-1.742-.152l-2.933-.248c-2.31-.19-4.326-.485-6.046-.885-1.72-.4-3.152-.914-4.294-1.543-1.143-.628-2-1.38-2.571-2.256-.571-.876-.857-1.898-.857-3.066 0-1.194.27-2.289.81-3.285.539-.997 1.275-1.895 2.208-2.695.933-.8 2.025-1.495 3.276-2.085a24.979 24.979 0 0 1 4.008-1.476 31.824 31.824 0 0 1 4.418-.885 35.06 35.06 0 0 1 4.494-.295c1.841 0 3.444.11 4.809.333 1.364.222 2.532.508 3.504.857.97.349 1.767.746 2.39 1.19.622.444 1.123.882 1.504 1.314.901 1.054 1.352 2.253 1.352 3.599 0 .444-.044.87-.133 1.276zm11.54 14.701a13.48 13.48 0 0 1-.267 1.99 6.312 6.312 0 0 1-.657 1.8 3.866 3.866 0 0 1-1.171 1.304c-.482.336-1.08.505-1.79.505-.444 0-.835-.067-1.171-.2a2.892 2.892 0 0 1-.876-.533 3.105 3.105 0 0 1-.62-.762 5.586 5.586 0 0 1-.418-.905c-.444.737-.968 1.305-1.571 1.705-.603.4-1.203.6-1.8.6-.482 0-.917-.09-1.304-.267a2.815 2.815 0 0 1-.99-.752 3.522 3.522 0 0 1-.638-1.171 4.863 4.863 0 0 1-.229-1.543c0-.952.086-1.774.257-2.466.172-.692.362-1.26.572-1.704.21-.445.403-.778.58-1l.267-.333a.59.59 0 0 1 .238-.172.788.788 0 0 1 .295-.057c.203 0 .372.073.505.22.133.145.2.313.2.504 0 .14-.051.292-.153.457l-.295.438a5.023 5.023 0 0 0-.447.876 8.468 8.468 0 0 0-.41 1.352c-.12.533-.18 1.161-.18 1.885 0 .75.152 1.317.456 1.704.305.388.73.581 1.276.581.267 0 .559-.073.876-.219.318-.146.616-.371.895-.676.28-.305.52-.692.724-1.161.203-.47.33-1.022.38-1.657l.248-3.276a.667.667 0 0 1 .238-.476.746.746 0 0 1 .505-.19c.216 0 .387.08.514.238.127.159.19.34.19.543l-.209 3.142c-.038.673-.016 1.25.067 1.733.082.482.219.879.41 1.19.19.31.425.54.704.685.28.146.59.22.933.22.457 0 .844-.134 1.162-.4.317-.267.57-.629.761-1.086.19-.457.327-.987.41-1.59.082-.603.124-1.241.124-1.914 0-.8-.045-1.466-.134-2-.089-.533-.133-.888-.133-1.066 0-.19.07-.358.21-.504a.684.684 0 0 1 .514-.22c.177 0 .33.055.457.162a.75.75 0 0 1 .247.429c.013.05.05.197.114.438s.153.53.267.866c.114.337.263.692.448 1.067.184.374.406.72.666 1.038.26.317.559.58.895.79.336.21.72.314 1.152.314.241 0 .448-.047.619-.143a1.673 1.673 0 0 0 .686-.695l.104-.21a.791.791 0 0 1 .276-.332.678.678 0 0 1 .39-.124c.217 0 .391.08.524.238.134.158.2.327.2.504 0 .153-.066.356-.2.61-.133.254-.32.498-.561.733a3.411 3.411 0 0 1-.886.61c-.349.17-.733.256-1.152.256-.368 0-.71-.054-1.028-.161a3.939 3.939 0 0 1-.886-.429 4.645 4.645 0 0 1-.752-.61 6.752 6.752 0 0 1-.628-.723zm19.443-.019l-.315.638a17.216 17.216 0 0 1-1.476 2.428 8.7 8.7 0 0 1-1.104 1.257c-.406.38-.844.695-1.314.942-.47.248-.965.372-1.485.372-.737 0-1.356-.235-1.857-.705-.501-.47-.866-1.06-1.095-1.77-.432.723-.946 1.297-1.542 1.723-.597.425-1.194.637-1.79.637-.47 0-.895-.085-1.276-.257a2.746 2.746 0 0 1-.972-.723 3.364 3.364 0 0 1-.618-1.095 4.14 4.14 0 0 1-.22-1.371c0-.99.169-1.863.505-2.619.337-.755.765-1.387 1.286-1.894a5.303 5.303 0 0 1 1.723-1.143c.628-.254 1.235-.38 1.819-.38.393 0 .755.053 1.085.16.33.109.613.226.847.353a3.226 3.226 0 0 1 .753.533c.14.165.21.337.21.515 0 .19-.07.358-.21.504a.663.663 0 0 1-.495.22.699.699 0 0 1-.515-.21 2.156 2.156 0 0 0-.533-.362 2.96 2.96 0 0 0-.543-.2 2.719 2.719 0 0 0-.714-.086c-.393 0-.812.09-1.256.267-.445.178-.851.454-1.22.828-.367.375-.675.845-.923 1.41-.247.564-.371 1.234-.371 2.008 0 .242.025.486.076.734.05.247.14.473.267.676.127.203.298.368.514.495.216.127.482.19.8.19.228 0 .492-.076.79-.228.298-.153.584-.388.857-.705.273-.317.52-.717.742-1.2.223-.482.378-1.053.467-1.713a.707.707 0 0 1 .248-.448c.14-.12.304-.18.495-.18.177 0 .333.069.466.209.134.14.207.298.22.476.012.24.037.58.075 1.018.039.438.124.873.258 1.305.133.432.333.806.6 1.123.266.318.634.477 1.104.477.305 0 .606-.083.904-.248.299-.165.59-.384.876-.657.286-.273.559-.584.82-.933a14.38 14.38 0 0 0 1.285-2.085c.165-.33.304-.616.419-.857a.728.728 0 0 1 .666-.438c.216 0 .39.08.524.238.133.158.2.327.2.504a.672.672 0 0 1-.057.267zm3.085 3.618a74.12 74.12 0 0 1 1.666-3.123c.324-.571.64-1.11.952-1.619.311-.507.574-.895.79-1.161.368-.444.75-.762 1.143-.952.393-.19.755-.286 1.085-.286.33 0 .613.07.848.21.235.14.428.326.58.561.153.235.267.508.343.82.076.31.114.643.114.999 0 .203-.009.47-.028.8a379.435 379.435 0 0 0-.114 2.247c-.02.406-.035.787-.048 1.142a87.93 87.93 0 0 1 1.38-2.647c.248-.457.486-.885.715-1.285.228-.4.438-.727.628-.98.546-.75 1.057-1.251 1.533-1.505s.898-.381 1.267-.381c.431 0 .787.08 1.066.238.28.159.498.362.657.61.159.247.27.523.333.828.064.304.095.596.095.876 0 .431-.031.882-.095 1.352-.063.47-.095 1.028-.095 1.676 0 .266.013.533.038.8a2.5 2.5 0 0 0 .162.704c.082.203.213.368.39.495.178.127.42.19.724.19.33 0 .654-.085.971-.257.317-.17.622-.396.914-.676a7.19 7.19 0 0 0 .829-.952 15.795 15.795 0 0 0 1.285-2.085c.165-.324.298-.6.4-.828a.751.751 0 0 1 .266-.324.672.672 0 0 1 .381-.114c.216 0 .39.08.524.238.133.158.2.327.2.504a.672.672 0 0 1-.057.267c-.051.102-.153.314-.305.638s-.355.692-.61 1.104c-.253.413-.548.848-.885 1.305A9.64 9.64 0 0 1 241.72 29a5.866 5.866 0 0 1-1.314.952c-.47.248-.965.372-1.485.372-.559 0-1.013-.099-1.362-.295a2.33 2.33 0 0 1-.838-.79 3.12 3.12 0 0 1-.428-1.143 7.77 7.77 0 0 1-.114-1.352c0-.622.031-1.197.095-1.724.063-.527.095-.936.095-1.228 0-.317-.028-.559-.086-.724-.057-.165-.126-.282-.209-.352a.433.433 0 0 0-.238-.114 2.26 2.26 0 0 0-.171-.01c-.305 0-.626.168-.962.505-.337.336-.682.784-1.038 1.342-.355.559-.72 1.194-1.095 1.905-.374.71-.752 1.434-1.133 2.17-.216.407-.397.743-.543 1.01a3.573 3.573 0 0 1-.419.628c-.133.153-.263.26-.39.324a.924.924 0 0 1-.419.095c-.33 0-.58-.114-.752-.342-.172-.229-.257-.527-.257-.896 0-.19.006-.444.019-.761l.038-1.048c.013-.38.032-.774.057-1.18.025-.407.044-.797.057-1.171.013-.375.026-.708.038-1 .013-.292.02-.514.02-.667 0-.33-.058-.568-.172-.714-.114-.146-.248-.219-.4-.219-.14 0-.295.051-.467.153-.171.101-.37.298-.6.59a12.38 12.38 0 0 0-.675 1 44.68 44.68 0 0 0-.867 1.456c-.305.534-.606 1.08-.904 1.638-.299.559-.556 1.06-.772 1.505-.266.533-.533.898-.8 1.095-.266.196-.526.295-.78.295-.368 0-.641-.111-.82-.334-.177-.222-.266-.517-.266-.885a470.608 470.608 0 0 0 .095-2.219c.026-.603.054-1.247.086-1.932.032-.686.06-1.327.086-1.924.013-.317 0-.61-.038-.876s-.089-.425-.153-.476c-.101.026-.301.26-.6.705-.298.444-.675 1.219-1.132 2.323a.71.71 0 0 1-.286.324.766.766 0 0 1-.4.114.647.647 0 0 1-.514-.219.746.746 0 0 1-.133-.79c.57-1.359 1.117-2.358 1.637-3 .52-.64 1.029-.961 1.524-.961.292 0 .536.066.733.2.197.133.352.304.466.514.115.21.197.447.248.714.05.267.076.527.076.78 0 1.13-.028 2.165-.086 3.105-.057.94-.117 1.885-.18 2.837zm23.632-13.254c0 .483-.168.892-.505 1.229a1.672 1.672 0 0 1-1.228.504c-.482 0-.892-.168-1.228-.504a1.672 1.672 0 0 1-.505-1.229 1.713 1.713 0 0 1 .505-1.228 1.727 1.727 0 0 1 1.228-.505 1.713 1.713 0 0 1 1.228.505 1.727 1.727 0 0 1 .505 1.228zm-3.085 11.16c0-1.829.114-3.65.343-5.466a.808.808 0 0 1 .238-.466.708.708 0 0 1 .523-.2c.19 0 .35.073.476.219.127.146.19.314.19.504 0 .076-.015.305-.047.686l-.114 1.361a55.333 55.333 0 0 0-.114 1.676c-.032.59-.048 1.133-.048 1.628 0 .673.067 1.216.2 1.628.133.413.305.734.514.962.21.229.432.381.667.457.235.076.46.114.676.114.355 0 .723-.126 1.104-.38.381-.254.772-.61 1.171-1.067.4-.457.803-1.006 1.21-1.647.406-.641.806-1.355 1.2-2.142a.708.708 0 0 1 .647-.4c.203 0 .371.076.504.228.134.153.2.318.2.495a.643.643 0 0 1-.076.324 67.24 67.24 0 0 1-.571 1.067 18.47 18.47 0 0 1-1.742 2.618c-.35.438-.72.831-1.114 1.18-.394.35-.807.632-1.238.848a2.91 2.91 0 0 1-1.314.324c-.572 0-1.073-.12-1.505-.362a3.41 3.41 0 0 1-1.095-.971 4.227 4.227 0 0 1-.666-1.438 6.946 6.946 0 0 1-.22-1.78zm2.018-11.16a.64.64 0 0 0-.2-.466.64.64 0 0 0-.466-.2.609.609 0 0 0-.457.2.655.655 0 0 0-.19.466c0 .178.063.33.19.457s.28.19.457.19a.655.655 0 0 0 .466-.19c.134-.127.2-.279.2-.457z"/>
</svg>
