<svg xmlns="http://www.w3.org/2000/svg" width="74" height="74" viewBox="0 0 74 74">
    <g fill="#FF5C5C" fill-rule="evenodd">
        <rect width="74" height="74" fill-opacity=".15" rx="37"/>
        <path fill-rule="nonzero" d="M51.753 27.974C50.598 26.572 48.465 26 44.393 26H29.607c-4.167 0-6.335.609-7.486 2.102C21 29.558 21 31.702 21 34.67v5.658C21 46.08 22.331 49 29.608 49h14.784c3.532 0 5.49-.505 6.756-1.742C52.446 45.988 53 43.916 53 40.329v-5.658c0-3.13-.087-5.288-1.247-6.697zM41.544 38.281l-6.713 3.584a1.014 1.014 0 0 1-1.013-.033 1.06 1.06 0 0 1-.498-.902v-7.144c0-.368.188-.71.496-.9a1.014 1.014 0 0 1 1.012-.035l6.714 3.56c.341.181.556.541.556.934 0 .394-.213.754-.554.936z"/>
    </g>
</svg>
